<?xml version="1.0" encoding="utf-8"?>
<!-- Generator: Adobe Illustrator 26.1.0, SVG Export Plug-In . SVG Version: 6.00 Build 0)  -->
<svg version="1.1" id="Vrstva_1" xmlns="http://www.w3.org/2000/svg" xmlns:xlink="http://www.w3.org/1999/xlink" x="0px" y="0px"
	 viewBox="0 0 1366 768" style="enable-background:new 0 0 1366 768;" xml:space="preserve">
<style type="text/css">
	.st0{fill:none;stroke:#1D1D1B;stroke-width:10;stroke-miterlimit:10;}
	.st1{fill:#1D1D1B;stroke:#1D1D1B;stroke-miterlimit:10;}
	.st2{stroke:#1D1D1B;stroke-miterlimit:10;}
	.st3{fill:#1D1D1B;stroke:#1D1D1B;stroke-width:5;stroke-linejoin:round;stroke-miterlimit:10;}
	.st4{fill:#E42320;stroke:#E20613;stroke-width:5;stroke-linecap:round;stroke-linejoin:round;stroke-miterlimit:10;}
	.st5{fill:#FFFFFF;stroke:#FDFDFC;stroke-miterlimit:10;}
	.st6{fill:#FFFFFF;stroke:#1D1D1B;stroke-width:4;stroke-linejoin:round;stroke-miterlimit:10;}
	.st7{fill:#FFEA13;stroke:#1D1D1B;stroke-width:2;stroke-linejoin:round;stroke-miterlimit:10;}
</style>
<path class="st0" d="M40.42,196.36"/>
<path class="st0" d="M324.93,92.49"/>
<path class="st0" d="M268.93,280.79"/>
<path class="st0" d="M297.72,254.36"/>
<path class="st0" d="M268.93,265.76"/>
<path class="st1" d="M210.65,221.87L210.65,221.87c-2.86,0-5.17-2.31-5.17-5.17V59.68c0-2.86,2.31-5.17,5.17-5.17h0
	c2.86,0,5.17,2.31,5.17,5.17V216.7C215.82,219.55,213.5,221.87,210.65,221.87z"/>
<path class="st1" d="M48.01,216.7L48.01,216.7c0-2.86,2.31-5.17,5.17-5.17H210.2c2.86,0,5.17,2.31,5.17,5.17v0
	c0,2.86-2.31,5.17-5.17,5.17H53.18C50.33,221.87,48.01,219.55,48.01,216.7z"/>
<path class="st1" d="M322.49,216.92L322.49,216.92c0-2.86,2.31-5.17,5.17-5.17h482.67c2.86,0,5.17,2.31,5.17,5.17v0
	c0,2.86-2.31,5.17-5.17,5.17H327.66C324.8,222.09,322.49,219.78,322.49,216.92z"/>
<path class="st1" d="M327.66,54.28L327.66,54.28c2.86,0,5.17,2.31,5.17,5.17v157.02c0,2.86-2.31,5.17-5.17,5.17l0,0
	c-2.86,0-5.17-2.31-5.17-5.17V59.45C322.49,56.6,324.8,54.28,327.66,54.28z"/>
<path class="st0" d="M271.16,265.76"/>
<path class="st0" d="M242.37,292.19"/>
<path class="st0" d="M271.16,280.79"/>
<path class="st1" d="M329.44,328.43c2.86,0,5.17,2.31,5.17,5.17v157.02c0,2.86-2.31,5.17-5.17,5.17s-5.17-2.31-5.17-5.17V333.6
	C324.27,330.74,326.59,328.43,329.44,328.43z"/>
<path class="st1" d="M815.5,333.6c0,2.86-2.31,5.17-5.17,5.17H329.89c-2.86,0-5.17-2.31-5.17-5.17s2.31-5.17,5.17-5.17h480.44
	C813.19,328.43,815.5,330.74,815.5,333.6z"/>
<path class="st1" d="M217.6,333.37L217.6,333.37c0,2.86-2.31,5.17-5.17,5.17H55.41c-2.86,0-5.17-2.31-5.17-5.17v0
	c0-2.86,2.31-5.17,5.17-5.17h157.02C215.29,328.2,217.6,330.52,217.6,333.37z"/>
<path class="st1" d="M212.43,496.01L212.43,496.01c-2.86,0-5.17-2.31-5.17-5.17V333.82c0-2.86,2.31-5.17,5.17-5.17h0
	c2.86,0,5.17,2.31,5.17,5.17v157.02C217.6,493.7,215.29,496.01,212.43,496.01z"/>
<path class="st2" d="M264.93,166.47v-57.01c0-0.83,0.67-1.5,1.5-1.5h5.01c0.83,0,1.5,0.67,1.5,1.5v57.01c0,0.83-0.67,1.5-1.5,1.5
	h-5.01C265.6,167.96,264.93,167.29,264.93,166.47z"/>
<path class="st2" d="M268.93,440.61V383.6c0-0.83,0.67-1.5,1.5-1.5h5.01c0.83,0,1.5,0.67,1.5,1.5v57.01c0,0.83-0.67,1.5-1.5,1.5
	h-5.01C269.6,442.11,268.93,441.44,268.93,440.61z"/>
<path class="st2" d="M103.19,272.79h57.01c0.83,0,1.5,0.67,1.5,1.5v5.01c0,0.83-0.67,1.5-1.5,1.5h-57.01c-0.83,0-1.5-0.67-1.5-1.5
	v-5.01C101.69,273.46,102.36,272.79,103.19,272.79z"/>
<path class="st2" d="M379,274.5H436c0.83,0,1.5,0.67,1.5,1.5V281c0,0.83-0.67,1.5-1.5,1.5H379c-0.83,0-1.5-0.67-1.5-1.5V276
	C377.5,275.17,378.17,274.5,379,274.5z"/>
<g>
	<polygon class="st3" points="73.97,378.3 188.68,378.3 131.32,474.07 	"/>
	<polygon class="st4" points="82.27,382.67 180.37,382.67 131.32,464.24 	"/>
	<polygon class="st5" points="95.17,389.44 167.47,389.44 131.32,449.56 	"/>
</g>
<g>
	
		<rect x="80.16" y="82.12" transform="matrix(0.7071 -0.7071 0.7071 0.7071 -53.4132 126.1842)" class="st6" width="90.89" height="90.89"/>
	
		<rect x="98.85" y="100.8" transform="matrix(0.7071 -0.7071 0.7071 0.7071 -53.4132 126.1842)" class="st7" width="53.53" height="53.53"/>
</g>
<g>
	<path d="M393.55,168.33h-16.5l12.94-37.26h23.51l12.94,37.26h-16.48l-2.15-6.3H395.7L393.55,168.33z M398.7,153.24h6.1l-3.05-9.25
		L398.7,153.24z"/>
	<path d="M463.43,131.07v16.89c0,7.37-1.88,12.71-5.65,16.02c-3.77,3.3-8.07,4.96-12.9,4.96c-3.5,0-6.82-0.91-9.97-2.73
		c-3.15-1.82-5.36-4.23-6.63-7.21c-1.27-2.99-1.9-6.9-1.9-11.76v-16.16h16.5v17.26c0,1.86,0.16,3.03,0.49,3.52
		c0.33,0.49,0.81,0.73,1.46,0.73c0.91,0,1.49-0.44,1.73-1.33c0.24-0.89,0.37-2.38,0.37-4.48v-15.7H463.43z"/>
	<path d="M467.43,147.58v-16.5h33.11v16.5h-8.3v20.75h-16.5v-20.75H467.43z"/>
	<path d="M522.02,168.94c-5.32,0-9.83-1.87-13.54-5.6c-3.7-3.74-5.55-8.29-5.55-13.66c0-5.35,1.85-9.89,5.55-13.61
		c3.7-3.72,8.22-5.58,13.54-5.58c5.34,0,9.86,1.86,13.56,5.58c3.7,3.72,5.55,8.26,5.55,13.61c0,5.37-1.85,9.92-5.55,13.66
		C531.88,167.07,527.36,168.94,522.02,168.94z M522.02,144.77c-1.06,0-1.94,0.37-2.64,1.11c-0.7,0.74-1.05,1.67-1.05,2.8
		s0.35,2.06,1.05,2.8c0.7,0.74,1.58,1.11,2.64,1.11c1.07,0,1.96-0.37,2.66-1.11c0.7-0.74,1.05-1.67,1.05-2.8s-0.35-2.05-1.05-2.8
		C523.98,145.14,523.09,144.77,522.02,144.77z"/>
	<path d="M578.29,132.98l-4.1,11.74c-2.69-3.63-5.77-5.44-9.25-5.44c-1.94,0-2.91,0.73-2.91,2.2c0,0.46,0.31,0.92,0.92,1.39
		c0.61,0.47,2.21,1.21,4.8,2.22c2.85,1.12,5.04,2.14,6.58,3.06c1.54,0.92,2.69,2.1,3.45,3.53c0.76,1.43,1.15,3.1,1.15,5
		c0,3.99-1.51,7.03-4.54,9.12c-3.03,2.09-7.48,3.14-13.35,3.14c-6.59,0-12.27-0.94-17.04-2.81l4.03-12.45
		c1.17,1.82,2.62,3.27,4.36,4.35s3.4,1.61,4.99,1.61c0.78,0,1.44-0.2,1.97-0.61c0.53-0.41,0.79-0.9,0.79-1.49
		c0-0.55-0.26-1.08-0.77-1.59c-0.51-0.5-1.87-1.2-4.06-2.1c-1.99-0.8-3.63-1.57-4.93-2.33c-1.3-0.76-2.43-1.83-3.39-3.23
		c-0.96-1.4-1.44-3.17-1.44-5.3c0-4.13,1.51-7.25,4.52-9.35c3.01-2.1,7.45-3.15,13.33-3.15
		C568.75,130.49,573.72,131.32,578.29,132.98z M565.67,122.28h5.4l-4.59,6.45h-9.72l-4.64-6.45h5.86l4.13,2.93L565.67,122.28z"/>
	<path d="M600.07,131.07v12.45c2.82-0.21,4.96-1.41,6.42-3.59c1.46-2.18,2.2-5.13,2.2-8.86h16.8c0,4.54-0.59,8.28-1.78,11.23
		c-1.19,2.95-3.04,5.39-5.57,7.32c5.08,3.87,7.88,10.11,8.4,18.7h-17.8c-0.42-8.89-3.31-13.42-8.67-13.6v13.6h-16.48v-37.26H600.07z
		"/>
	<path d="M647.58,168.94c-5.32,0-9.83-1.87-13.54-5.6c-3.7-3.74-5.55-8.29-5.55-13.66c0-5.35,1.85-9.89,5.55-13.61
		c3.7-3.72,8.21-5.58,13.54-5.58c5.34,0,9.86,1.86,13.56,5.58c3.7,3.72,5.55,8.26,5.55,13.61c0,5.37-1.85,9.92-5.55,13.66
		C657.44,167.07,652.92,168.94,647.58,168.94z M647.58,144.77c-1.06,0-1.94,0.37-2.64,1.11c-0.7,0.74-1.05,1.67-1.05,2.8
		s0.35,2.06,1.05,2.8c0.7,0.74,1.58,1.11,2.64,1.11c1.07,0,1.96-0.37,2.66-1.11c0.7-0.74,1.05-1.67,1.05-2.8s-0.35-2.05-1.05-2.8
		C649.54,145.14,648.66,144.77,647.58,144.77z"/>
	<path d="M672.53,168.33v-37.26h16.5v27.91h14.45v9.35H672.53z"/>
	<path d="M720.41,168.33h-16.5l12.94-37.26h23.51l12.94,37.26h-16.48l-2.15-6.3h-12.11L720.41,168.33z M725.56,153.24h6.1
		l-3.05-9.25L725.56,153.24z"/>
</g>
<g>
	<path d="M393.55,442.14h-16.5l12.94-37.26h23.51l12.94,37.26h-16.48l-2.15-6.3H395.7L393.55,442.14z M398.71,427.06h6.1l-3.05-9.25
		L398.71,427.06z"/>
	<path d="M492.72,404.89h18.33c6.61,0,11.71,1.83,15.31,5.48c3.6,3.65,5.4,8.06,5.4,13.22c0,3.29-0.82,6.39-2.45,9.31
		c-1.64,2.92-4.03,5.19-7.19,6.81c-3.16,1.62-6.97,2.43-11.45,2.43h-17.94V404.89z M509.2,419.15v8.74h0.42
		c1.99,0,3.42-0.35,4.31-1.04c0.89-0.69,1.33-1.83,1.33-3.41c0-2.86-1.67-4.3-5-4.3H509.2z"/>
	<path d="M610.3,442.14h-16.5l12.94-37.26h23.51l12.94,37.26h-16.48l-2.15-6.3h-12.11L610.3,442.14z M615.45,427.06h6.1l-3.05-9.25
		L615.45,427.06z"/>
	<path d="M709.3,442.14v-37.26h16.02l6.74,7.76l6.76-7.76h15.99v37.26h-16.5v-18.65l-6.25,7.2l-6.25-7.2v18.65H709.3z"/>
</g>
<path class="st2" d="M546,272.5H603c0.83,0,1.5,0.67,1.5,1.5V279c0,0.83-0.67,1.5-1.5,1.5H546c-0.83,0-1.5-0.67-1.5-1.5V274
	C544.5,273.17,545.17,272.5,546,272.5z"/>
<path class="st2" d="M712,276.5H769c0.83,0,1.5,0.67,1.5,1.5V283c0,0.83-0.67,1.5-1.5,1.5H712c-0.83,0-1.5-0.67-1.5-1.5V278
	C710.5,277.17,711.17,276.5,712,276.5z"/>
<path class="st1" d="M768,422"/>
</svg>
