<?xml version="1.0" encoding="UTF-8" standalone="no" ?>
<!DOCTYPE svg PUBLIC "-//W3C//DTD SVG 1.1//EN" "http://www.w3.org/Graphics/SVG/1.1/DTD/svg11.dtd">
<svg xmlns="http://www.w3.org/2000/svg" xmlns:xlink="http://www.w3.org/1999/xlink" version="1.1" width="608" height="400" viewBox="0 0 640 421.05" xml:space="preserve">
<desc>Created with Fabric.js 3.6.1</desc>
<defs>
</defs>
<g transform="matrix(0.82 0 0 0.82 527.34 294.24)"  >
<g style=""   >
		<g transform="matrix(1 0 0 1 -642.58 -187.64)"  >
<path style="stroke: rgb(29,29,27); stroke-width: 10; stroke-dasharray: none; stroke-linecap: butt; stroke-dashoffset: 0; stroke-linejoin: miter; stroke-miterlimit: 10; fill: none; fill-rule: nonzero; opacity: 1;"  transform=" translate(-40.42, -196.36)" d="M 40.42 196.36" stroke-linecap="round" />
</g>
		<g transform="matrix(1 0 0 1 -358.07 -291.51)"  >
<path style="stroke: rgb(29,29,27); stroke-width: 10; stroke-dasharray: none; stroke-linecap: butt; stroke-dashoffset: 0; stroke-linejoin: miter; stroke-miterlimit: 10; fill: none; fill-rule: nonzero; opacity: 1;"  transform=" translate(-324.93, -92.49)" d="M 324.93 92.49" stroke-linecap="round" />
</g>
		<g transform="matrix(1 0 0 1 -414.07 -103.21)"  >
<path style="stroke: rgb(29,29,27); stroke-width: 10; stroke-dasharray: none; stroke-linecap: butt; stroke-dashoffset: 0; stroke-linejoin: miter; stroke-miterlimit: 10; fill: none; fill-rule: nonzero; opacity: 1;"  transform=" translate(-268.93, -280.79)" d="M 268.93 280.79" stroke-linecap="round" />
</g>
		<g transform="matrix(1 0 0 1 -385.28 -129.64)"  >
<path style="stroke: rgb(29,29,27); stroke-width: 10; stroke-dasharray: none; stroke-linecap: butt; stroke-dashoffset: 0; stroke-linejoin: miter; stroke-miterlimit: 10; fill: none; fill-rule: nonzero; opacity: 1;"  transform=" translate(-297.72, -254.36)" d="M 297.72 254.36" stroke-linecap="round" />
</g>
		<g transform="matrix(1 0 0 1 -414.07 -118.24)"  >
<path style="stroke: rgb(29,29,27); stroke-width: 10; stroke-dasharray: none; stroke-linecap: butt; stroke-dashoffset: 0; stroke-linejoin: miter; stroke-miterlimit: 10; fill: none; fill-rule: nonzero; opacity: 1;"  transform=" translate(-268.93, -265.76)" d="M 268.93 265.76" stroke-linecap="round" />
</g>
		<g transform="matrix(1 0 0 1 -472.35 -245.81)"  >
<path style="stroke: rgb(29,29,27); stroke-width: 1; stroke-dasharray: none; stroke-linecap: butt; stroke-dashoffset: 0; stroke-linejoin: miter; stroke-miterlimit: 10; fill: rgb(29,29,27); fill-rule: nonzero; opacity: 1;"  transform=" translate(-210.65, -138.19)" d="M 210.65 221.87 L 210.65 221.87 c -2.86 0 -5.17 -2.31 -5.17 -5.17 V 59.68 c 0 -2.86 2.31 -5.17 5.17 -5.17 h 0 c 2.86 0 5.17 2.31 5.17 5.17 V 216.7 C 215.82 219.55 213.5 221.87 210.65 221.87 z" stroke-linecap="round" />
</g>
		<g transform="matrix(1 0 0 1 -551.31 -167.3)"  >
<path style="stroke: rgb(29,29,27); stroke-width: 1; stroke-dasharray: none; stroke-linecap: butt; stroke-dashoffset: 0; stroke-linejoin: miter; stroke-miterlimit: 10; fill: rgb(29,29,27); fill-rule: nonzero; opacity: 1;"  transform=" translate(-131.69, -216.7)" d="M 48.01 216.7 L 48.01 216.7 c 0 -2.86 2.31 -5.17 5.17 -5.17 H 210.2 c 2.86 0 5.17 2.31 5.17 5.17 v 0 c 0 2.86 -2.31 5.17 -5.17 5.17 H 53.18 C 50.33 221.87 48.01 219.55 48.01 216.7 z" stroke-linecap="round" />
</g>
		<g transform="matrix(1 0 0 1 -114 -167.08)"  >
<path style="stroke: rgb(29,29,27); stroke-width: 1; stroke-dasharray: none; stroke-linecap: butt; stroke-dashoffset: 0; stroke-linejoin: miter; stroke-miterlimit: 10; fill: rgb(29,29,27); fill-rule: nonzero; opacity: 1;"  transform=" translate(-569, -216.92)" d="M 322.49 216.92 L 322.49 216.92 c 0 -2.86 2.31 -5.17 5.17 -5.17 h 482.67 c 2.86 0 5.17 2.31 5.17 5.17 v 0 c 0 2.86 -2.31 5.17 -5.17 5.17 H 327.66 C 324.8 222.09 322.49 219.78 322.49 216.92 z" stroke-linecap="round" />
</g>
		<g transform="matrix(1 0 0 1 -355.34 -246.04)"  >
<path style="stroke: rgb(29,29,27); stroke-width: 1; stroke-dasharray: none; stroke-linecap: butt; stroke-dashoffset: 0; stroke-linejoin: miter; stroke-miterlimit: 10; fill: rgb(29,29,27); fill-rule: nonzero; opacity: 1;"  transform=" translate(-327.66, -137.96)" d="M 327.66 54.28 L 327.66 54.28 c 2.86 0 5.17 2.31 5.17 5.17 v 157.02 c 0 2.86 -2.31 5.17 -5.17 5.17 l 0 0 c -2.86 0 -5.17 -2.31 -5.17 -5.17 V 59.45 C 322.49 56.6 324.8 54.28 327.66 54.28 z" stroke-linecap="round" />
</g>
		<g transform="matrix(1 0 0 1 -411.84 -118.24)"  >
<path style="stroke: rgb(29,29,27); stroke-width: 10; stroke-dasharray: none; stroke-linecap: butt; stroke-dashoffset: 0; stroke-linejoin: miter; stroke-miterlimit: 10; fill: none; fill-rule: nonzero; opacity: 1;"  transform=" translate(-271.16, -265.76)" d="M 271.16 265.76" stroke-linecap="round" />
</g>
		<g transform="matrix(1 0 0 1 -440.63 -91.81)"  >
<path style="stroke: rgb(29,29,27); stroke-width: 10; stroke-dasharray: none; stroke-linecap: butt; stroke-dashoffset: 0; stroke-linejoin: miter; stroke-miterlimit: 10; fill: none; fill-rule: nonzero; opacity: 1;"  transform=" translate(-242.37, -292.19)" d="M 242.37 292.19" stroke-linecap="round" />
</g>
		<g transform="matrix(1 0 0 1 -411.84 -103.21)"  >
<path style="stroke: rgb(29,29,27); stroke-width: 10; stroke-dasharray: none; stroke-linecap: butt; stroke-dashoffset: 0; stroke-linejoin: miter; stroke-miterlimit: 10; fill: none; fill-rule: nonzero; opacity: 1;"  transform=" translate(-271.16, -280.79)" d="M 271.16 280.79" stroke-linecap="round" />
</g>
		<g transform="matrix(1 0 0 1 -353.56 28.11)"  >
<path style="stroke: rgb(29,29,27); stroke-width: 1; stroke-dasharray: none; stroke-linecap: butt; stroke-dashoffset: 0; stroke-linejoin: miter; stroke-miterlimit: 10; fill: rgb(29,29,27); fill-rule: nonzero; opacity: 1;"  transform=" translate(-329.44, -412.11)" d="M 329.44 328.43 c 2.86 0 5.17 2.31 5.17 5.17 v 157.02 c 0 2.86 -2.31 5.17 -5.17 5.17 s -5.17 -2.31 -5.17 -5.17 V 333.6 C 324.27 330.74 326.59 328.43 329.44 328.43 z" stroke-linecap="round" />
</g>
		<g transform="matrix(1 0 0 1 -112.89 -50.4)"  >
<path style="stroke: rgb(29,29,27); stroke-width: 1; stroke-dasharray: none; stroke-linecap: butt; stroke-dashoffset: 0; stroke-linejoin: miter; stroke-miterlimit: 10; fill: rgb(29,29,27); fill-rule: nonzero; opacity: 1;"  transform=" translate(-570.11, -333.6)" d="M 815.5 333.6 c 0 2.86 -2.31 5.17 -5.17 5.17 H 329.89 c -2.86 0 -5.17 -2.31 -5.17 -5.17 s 2.31 -5.17 5.17 -5.17 h 480.44 C 813.19 328.43 815.5 330.74 815.5 333.6 z" stroke-linecap="round" />
</g>
		<g transform="matrix(1 0 0 1 -549.08 -50.63)"  >
<path style="stroke: rgb(29,29,27); stroke-width: 1; stroke-dasharray: none; stroke-linecap: butt; stroke-dashoffset: 0; stroke-linejoin: miter; stroke-miterlimit: 10; fill: rgb(29,29,27); fill-rule: nonzero; opacity: 1;"  transform=" translate(-133.92, -333.37)" d="M 217.6 333.37 L 217.6 333.37 c 0 2.86 -2.31 5.17 -5.17 5.17 H 55.41 c -2.86 0 -5.17 -2.31 -5.17 -5.17 v 0 c 0 -2.86 2.31 -5.17 5.17 -5.17 h 157.02 C 215.29 328.2 217.6 330.52 217.6 333.37 z" stroke-linecap="round" />
</g>
		<g transform="matrix(1 0 0 1 -470.57 28.33)"  >
<path style="stroke: rgb(29,29,27); stroke-width: 1; stroke-dasharray: none; stroke-linecap: butt; stroke-dashoffset: 0; stroke-linejoin: miter; stroke-miterlimit: 10; fill: rgb(29,29,27); fill-rule: nonzero; opacity: 1;"  transform=" translate(-212.43, -412.33)" d="M 212.43 496.01 L 212.43 496.01 c -2.86 0 -5.17 -2.31 -5.17 -5.17 V 333.82 c 0 -2.86 2.31 -5.17 5.17 -5.17 h 0 c 2.86 0 5.17 2.31 5.17 5.17 v 157.02 C 217.6 493.7 215.29 496.01 212.43 496.01 z" stroke-linecap="round" />
</g>
		<g transform="matrix(1 0 0 1 -414.06 -246.04)"  >
<path style="stroke: rgb(29,29,27); stroke-width: 1; stroke-dasharray: none; stroke-linecap: butt; stroke-dashoffset: 0; stroke-linejoin: miter; stroke-miterlimit: 10; fill: rgb(0,0,0); fill-rule: nonzero; opacity: 1;"  transform=" translate(-268.94, -137.97)" d="M 264.93 166.47 v -57.01 c 0 -0.83 0.67 -1.5 1.5 -1.5 h 5.01 c 0.83 0 1.5 0.67 1.5 1.5 v 57.01 c 0 0.83 -0.67 1.5 -1.5 1.5 h -5.01 C 265.6 167.96 264.93 167.29 264.93 166.47 z" stroke-linecap="round" />
</g>
		<g transform="matrix(1 0 0 1 -410.06 28.1)"  >
<path style="stroke: rgb(29,29,27); stroke-width: 1; stroke-dasharray: none; stroke-linecap: butt; stroke-dashoffset: 0; stroke-linejoin: miter; stroke-miterlimit: 10; fill: rgb(0,0,0); fill-rule: nonzero; opacity: 1;"  transform=" translate(-272.94, -412.11)" d="M 268.93 440.61 V 383.6 c 0 -0.83 0.67 -1.5 1.5 -1.5 h 5.01 c 0.83 0 1.5 0.67 1.5 1.5 v 57.01 c 0 0.83 -0.67 1.5 -1.5 1.5 h -5.01 C 269.6 442.11 268.93 441.44 268.93 440.61 z" stroke-linecap="round" />
</g>
		<g transform="matrix(1 0 0 1 -551.3 -107.2)"  >
<path style="stroke: rgb(29,29,27); stroke-width: 1; stroke-dasharray: none; stroke-linecap: butt; stroke-dashoffset: 0; stroke-linejoin: miter; stroke-miterlimit: 10; fill: rgb(0,0,0); fill-rule: nonzero; opacity: 1;"  transform=" translate(-131.69, -276.8)" d="M 103.19 272.79 h 57.01 c 0.83 0 1.5 0.67 1.5 1.5 v 5.01 c 0 0.83 -0.67 1.5 -1.5 1.5 h -57.01 c -0.83 0 -1.5 -0.67 -1.5 -1.5 v -5.01 C 101.69 273.46 102.36 272.79 103.19 272.79 z" stroke-linecap="round" />
</g>
		<g transform="matrix(1 0 0 1 -275.5 -105.5)"  >
<path style="stroke: rgb(29,29,27); stroke-width: 1; stroke-dasharray: none; stroke-linecap: butt; stroke-dashoffset: 0; stroke-linejoin: miter; stroke-miterlimit: 10; fill: rgb(0,0,0); fill-rule: nonzero; opacity: 1;"  transform=" translate(-407.5, -278.5)" d="M 379 274.5 H 436 c 0.83 0 1.5 0.67 1.5 1.5 V 281 c 0 0.83 -0.67 1.5 -1.5 1.5 H 379 c -0.83 0 -1.5 -0.67 -1.5 -1.5 V 276 C 377.5 275.17 378.17 274.5 379 274.5 z" stroke-linecap="round" />
</g>
		<g transform="matrix(1 0 0 1 -551.67 42.18)"  >
<polygon style="stroke: rgb(29,29,27); stroke-width: 5; stroke-dasharray: none; stroke-linecap: butt; stroke-dashoffset: 0; stroke-linejoin: round; stroke-miterlimit: 10; fill: rgb(29,29,27); fill-rule: nonzero; opacity: 1;"  points="-57.35,-47.88 57.36,-47.88 0,47.88 " />
</g>
		<g transform="matrix(1 0 0 1 -551.68 39.45)"  >
<polygon style="stroke: rgb(226,6,19); stroke-width: 5; stroke-dasharray: none; stroke-linecap: round; stroke-dashoffset: 0; stroke-linejoin: round; stroke-miterlimit: 10; fill: rgb(228,35,32); fill-rule: nonzero; opacity: 1;"  points="-49.05,-40.79 49.05,-40.79 0,40.78 " />
</g>
		<g transform="matrix(1 0 0 1 -551.68 35.5)"  >
<polygon style="stroke: rgb(253,253,252); stroke-width: 1; stroke-dasharray: none; stroke-linecap: butt; stroke-dashoffset: 0; stroke-linejoin: miter; stroke-miterlimit: 10; fill: rgb(255,255,255); fill-rule: nonzero; opacity: 1;"  points="-36.15,-30.06 36.15,-30.06 0,30.06 " />
</g>
		<g transform="matrix(0.71 -0.71 0.71 0.71 -557.39 -256.43)"  >
<rect style="stroke: rgb(29,29,27); stroke-width: 4; stroke-dasharray: none; stroke-linecap: butt; stroke-dashoffset: 0; stroke-linejoin: round; stroke-miterlimit: 10; fill: rgb(255,255,255); fill-rule: nonzero; opacity: 1;"  x="-45.445" y="-45.445" rx="0" ry="0" width="90.89" height="90.89" />
</g>
		<g transform="matrix(0.71 -0.71 0.71 0.71 -557.38 -256.44)"  >
<rect style="stroke: rgb(29,29,27); stroke-width: 2; stroke-dasharray: none; stroke-linecap: butt; stroke-dashoffset: 0; stroke-linejoin: round; stroke-miterlimit: 10; fill: rgb(255,234,19); fill-rule: nonzero; opacity: 1;"  x="-26.765" y="-26.765" rx="0" ry="0" width="53.53" height="53.53" />
</g>
		<g transform="matrix(1 0 0 1 -281.25 -234.3)"  >
<path style="stroke: none; stroke-width: 1; stroke-dasharray: none; stroke-linecap: butt; stroke-dashoffset: 0; stroke-linejoin: miter; stroke-miterlimit: 4; fill: rgb(0,0,0); fill-rule: nonzero; opacity: 1;"  transform=" translate(-401.75, -149.7)" d="M 393.55 168.33 h -16.5 l 12.94 -37.26 h 23.51 l 12.94 37.26 h -16.48 l -2.15 -6.3 H 395.7 L 393.55 168.33 z M 398.7 153.24 h 6.1 l -3.05 -9.25 L 398.7 153.24 z" stroke-linecap="round" />
</g>
		<g transform="matrix(1 0 0 1 -238.1 -234)"  >
<path style="stroke: none; stroke-width: 1; stroke-dasharray: none; stroke-linecap: butt; stroke-dashoffset: 0; stroke-linejoin: miter; stroke-miterlimit: 4; fill: rgb(0,0,0); fill-rule: nonzero; opacity: 1;"  transform=" translate(-444.91, -150)" d="M 463.43 131.07 v 16.89 c 0 7.37 -1.88 12.71 -5.65 16.02 c -3.77 3.3 -8.07 4.96 -12.9 4.96 c -3.5 0 -6.82 -0.91 -9.97 -2.73 c -3.15 -1.82 -5.36 -4.23 -6.63 -7.21 c -1.27 -2.99 -1.9 -6.9 -1.9 -11.76 v -16.16 h 16.5 v 17.26 c 0 1.86 0.16 3.03 0.49 3.52 c 0.33 0.49 0.81 0.73 1.46 0.73 c 0.91 0 1.49 -0.44 1.73 -1.33 c 0.24 -0.89 0.37 -2.38 0.37 -4.48 v -15.7 H 463.43 z" stroke-linecap="round" />
</g>
		<g transform="matrix(1 0 0 1 -199.01 -234.29)"  >
<path style="stroke: none; stroke-width: 1; stroke-dasharray: none; stroke-linecap: butt; stroke-dashoffset: 0; stroke-linejoin: miter; stroke-miterlimit: 4; fill: rgb(0,0,0); fill-rule: nonzero; opacity: 1;"  transform=" translate(-483.99, -149.71)" d="M 467.43 147.58 v -16.5 h 33.11 v 16.5 h -8.3 v 20.75 h -16.5 v -20.75 H 467.43 z" stroke-linecap="round" />
</g>
		<g transform="matrix(1 0 0 1 -160.97 -234.28)"  >
<path style="stroke: none; stroke-width: 1; stroke-dasharray: none; stroke-linecap: butt; stroke-dashoffset: 0; stroke-linejoin: miter; stroke-miterlimit: 4; fill: rgb(0,0,0); fill-rule: nonzero; opacity: 1;"  transform=" translate(-522.03, -149.71)" d="M 522.02 168.94 c -5.32 0 -9.83 -1.87 -13.54 -5.6 c -3.7 -3.74 -5.55 -8.29 -5.55 -13.66 c 0 -5.35 1.85 -9.89 5.55 -13.61 c 3.7 -3.72 8.22 -5.58 13.54 -5.58 c 5.34 0 9.86 1.86 13.56 5.58 c 3.7 3.72 5.55 8.26 5.55 13.61 c 0 5.37 -1.85 9.92 -5.55 13.66 C 531.88 167.07 527.36 168.94 522.02 168.94 z M 522.02 144.77 c -1.06 0 -1.94 0.37 -2.64 1.11 c -0.7 0.74 -1.05 1.67 -1.05 2.8 s 0.35 2.06 1.05 2.8 c 0.7 0.74 1.58 1.11 2.64 1.11 c 1.07 0 1.96 -0.37 2.66 -1.11 c 0.7 -0.74 1.05 -1.67 1.05 -2.8 s -0.35 -2.05 -1.05 -2.8 C 523.98 145.14 523.09 144.77 522.02 144.77 z" stroke-linecap="round" />
</g>
		<g transform="matrix(1 0 0 1 -121.54 -238.39)"  >
<path style="stroke: none; stroke-width: 1; stroke-dasharray: none; stroke-linecap: butt; stroke-dashoffset: 0; stroke-linejoin: miter; stroke-miterlimit: 4; fill: rgb(0,0,0); fill-rule: nonzero; opacity: 1;"  transform=" translate(-561.46, -145.61)" d="M 578.29 132.98 l -4.1 11.74 c -2.69 -3.63 -5.77 -5.44 -9.25 -5.44 c -1.94 0 -2.91 0.73 -2.91 2.2 c 0 0.46 0.31 0.92 0.92 1.39 c 0.61 0.47 2.21 1.21 4.8 2.22 c 2.85 1.12 5.04 2.14 6.58 3.06 c 1.54 0.92 2.69 2.1 3.45 3.53 c 0.76 1.43 1.15 3.1 1.15 5 c 0 3.99 -1.51 7.03 -4.54 9.12 c -3.03 2.09 -7.48 3.14 -13.35 3.14 c -6.59 0 -12.27 -0.94 -17.04 -2.81 l 4.03 -12.45 c 1.17 1.82 2.62 3.27 4.36 4.35 s 3.4 1.61 4.99 1.61 c 0.78 0 1.44 -0.2 1.97 -0.61 c 0.53 -0.41 0.79 -0.9 0.79 -1.49 c 0 -0.55 -0.26 -1.08 -0.77 -1.59 c -0.51 -0.5 -1.87 -1.2 -4.06 -2.1 c -1.99 -0.8 -3.63 -1.57 -4.93 -2.33 c -1.3 -0.76 -2.43 -1.83 -3.39 -3.23 c -0.96 -1.4 -1.44 -3.17 -1.44 -5.3 c 0 -4.13 1.51 -7.25 4.52 -9.35 c 3.01 -2.1 7.45 -3.15 13.33 -3.15 C 568.75 130.49 573.72 131.32 578.29 132.98 z M 565.67 122.28 h 5.4 l -4.59 6.45 h -9.72 l -4.64 -6.45 h 5.86 l 4.13 2.93 L 565.67 122.28 z" stroke-linecap="round" />
</g>
		<g transform="matrix(1 0 0 1 -77.94 -234.31)"  >
<path style="stroke: none; stroke-width: 1; stroke-dasharray: none; stroke-linecap: butt; stroke-dashoffset: 0; stroke-linejoin: miter; stroke-miterlimit: 4; fill: rgb(0,0,0); fill-rule: nonzero; opacity: 1;"  transform=" translate(-605.07, -149.69)" d="M 600.07 131.07 v 12.45 c 2.82 -0.21 4.96 -1.41 6.42 -3.59 c 1.46 -2.18 2.2 -5.13 2.2 -8.86 h 16.8 c 0 4.54 -0.59 8.28 -1.78 11.23 c -1.19 2.95 -3.04 5.39 -5.57 7.32 c 5.08 3.87 7.88 10.11 8.4 18.7 h -17.8 c -0.42 -8.89 -3.31 -13.42 -8.67 -13.6 v 13.6 h -16.48 v -37.26 H 600.07 z" stroke-linecap="round" />
</g>
		<g transform="matrix(1 0 0 1 -35.41 -234.28)"  >
<path style="stroke: none; stroke-width: 1; stroke-dasharray: none; stroke-linecap: butt; stroke-dashoffset: 0; stroke-linejoin: miter; stroke-miterlimit: 4; fill: rgb(0,0,0); fill-rule: nonzero; opacity: 1;"  transform=" translate(-647.59, -149.71)" d="M 647.58 168.94 c -5.32 0 -9.83 -1.87 -13.54 -5.6 c -3.7 -3.74 -5.55 -8.29 -5.55 -13.66 c 0 -5.35 1.85 -9.89 5.55 -13.61 c 3.7 -3.72 8.21 -5.58 13.54 -5.58 c 5.34 0 9.86 1.86 13.56 5.58 c 3.7 3.72 5.55 8.26 5.55 13.61 c 0 5.37 -1.85 9.92 -5.55 13.66 C 657.44 167.07 652.92 168.94 647.58 168.94 z M 647.58 144.77 c -1.06 0 -1.94 0.37 -2.64 1.11 c -0.7 0.74 -1.05 1.67 -1.05 2.8 s 0.35 2.06 1.05 2.8 c 0.7 0.74 1.58 1.11 2.64 1.11 c 1.07 0 1.96 -0.37 2.66 -1.11 c 0.7 -0.74 1.05 -1.67 1.05 -2.8 s -0.35 -2.05 -1.05 -2.8 C 649.54 145.14 648.66 144.77 647.58 144.77 z" stroke-linecap="round" />
</g>
		<g transform="matrix(1 0 0 1 5.01 -234.3)"  >
<path style="stroke: none; stroke-width: 1; stroke-dasharray: none; stroke-linecap: butt; stroke-dashoffset: 0; stroke-linejoin: miter; stroke-miterlimit: 4; fill: rgb(0,0,0); fill-rule: nonzero; opacity: 1;"  transform=" translate(-688, -149.7)" d="M 672.53 168.33 v -37.26 h 16.5 v 27.91 h 14.45 v 9.35 H 672.53 z" stroke-linecap="round" />
</g>
		<g transform="matrix(1 0 0 1 45.61 -234.3)"  >
<path style="stroke: none; stroke-width: 1; stroke-dasharray: none; stroke-linecap: butt; stroke-dashoffset: 0; stroke-linejoin: miter; stroke-miterlimit: 4; fill: rgb(0,0,0); fill-rule: nonzero; opacity: 1;"  transform=" translate(-728.61, -149.7)" d="M 720.41 168.33 h -16.5 l 12.94 -37.26 h 23.51 l 12.94 37.26 h -16.48 l -2.15 -6.3 h -12.11 L 720.41 168.33 z M 725.56 153.24 h 6.1 l -3.05 -9.25 L 725.56 153.24 z" stroke-linecap="round" />
</g>
		<g transform="matrix(1 0 0 1 -281.25 39.51)"  >
<path style="stroke: none; stroke-width: 1; stroke-dasharray: none; stroke-linecap: butt; stroke-dashoffset: 0; stroke-linejoin: miter; stroke-miterlimit: 4; fill: rgb(0,0,0); fill-rule: nonzero; opacity: 1;"  transform=" translate(-401.75, -423.51)" d="M 393.55 442.14 h -16.5 l 12.94 -37.26 h 23.51 l 12.94 37.26 h -16.48 l -2.15 -6.3 H 395.7 L 393.55 442.14 z M 398.71 427.06 h 6.1 l -3.05 -9.25 L 398.71 427.06 z" stroke-linecap="round" />
</g>
		<g transform="matrix(1 0 0 1 -170.76 39.52)"  >
<path style="stroke: none; stroke-width: 1; stroke-dasharray: none; stroke-linecap: butt; stroke-dashoffset: 0; stroke-linejoin: miter; stroke-miterlimit: 4; fill: rgb(0,0,0); fill-rule: nonzero; opacity: 1;"  transform=" translate(-512.24, -423.51)" d="M 492.72 404.89 h 18.33 c 6.61 0 11.71 1.83 15.31 5.48 c 3.6 3.65 5.4 8.06 5.4 13.22 c 0 3.29 -0.82 6.39 -2.45 9.31 c -1.64 2.92 -4.03 5.19 -7.19 6.81 c -3.16 1.62 -6.97 2.43 -11.45 2.43 h -17.94 V 404.89 z M 509.2 419.15 v 8.74 h 0.42 c 1.99 0 3.42 -0.35 4.31 -1.04 c 0.89 -0.69 1.33 -1.83 1.33 -3.41 c 0 -2.86 -1.67 -4.3 -5 -4.3 H 509.2 z" stroke-linecap="round" />
</g>
		<g transform="matrix(1 0 0 1 -64.5 39.51)"  >
<path style="stroke: none; stroke-width: 1; stroke-dasharray: none; stroke-linecap: butt; stroke-dashoffset: 0; stroke-linejoin: miter; stroke-miterlimit: 4; fill: rgb(0,0,0); fill-rule: nonzero; opacity: 1;"  transform=" translate(-618.5, -423.51)" d="M 610.3 442.14 h -16.5 l 12.94 -37.26 h 23.51 l 12.94 37.26 h -16.48 l -2.15 -6.3 h -12.11 L 610.3 442.14 z M 615.45 427.06 h 6.1 l -3.05 -9.25 L 615.45 427.06 z" stroke-linecap="round" />
</g>
		<g transform="matrix(1 0 0 1 49.05 39.51)"  >
<path style="stroke: none; stroke-width: 1; stroke-dasharray: none; stroke-linecap: butt; stroke-dashoffset: 0; stroke-linejoin: miter; stroke-miterlimit: 4; fill: rgb(0,0,0); fill-rule: nonzero; opacity: 1;"  transform=" translate(-732.05, -423.51)" d="M 709.3 442.14 v -37.26 h 16.02 l 6.74 7.76 l 6.76 -7.76 h 15.99 v 37.26 h -16.5 v -18.65 l -6.25 7.2 l -6.25 -7.2 v 18.65 H 709.3 z" stroke-linecap="round" />
</g>
		<g transform="matrix(1 0 0 1 -108.5 -107.5)"  >
<path style="stroke: rgb(29,29,27); stroke-width: 1; stroke-dasharray: none; stroke-linecap: butt; stroke-dashoffset: 0; stroke-linejoin: miter; stroke-miterlimit: 10; fill: rgb(0,0,0); fill-rule: nonzero; opacity: 1;"  transform=" translate(-574.5, -276.5)" d="M 546 272.5 H 603 c 0.83 0 1.5 0.67 1.5 1.5 V 279 c 0 0.83 -0.67 1.5 -1.5 1.5 H 546 c -0.83 0 -1.5 -0.67 -1.5 -1.5 V 274 C 544.5 273.17 545.17 272.5 546 272.5 z" stroke-linecap="round" />
</g>
		<g transform="matrix(1 0 0 1 57.5 -103.5)"  >
<path style="stroke: rgb(29,29,27); stroke-width: 1; stroke-dasharray: none; stroke-linecap: butt; stroke-dashoffset: 0; stroke-linejoin: miter; stroke-miterlimit: 10; fill: rgb(0,0,0); fill-rule: nonzero; opacity: 1;"  transform=" translate(-740.5, -280.5)" d="M 712 276.5 H 769 c 0.83 0 1.5 0.67 1.5 1.5 V 283 c 0 0.83 -0.67 1.5 -1.5 1.5 H 712 c -0.83 0 -1.5 -0.67 -1.5 -1.5 V 278 C 710.5 277.17 711.17 276.5 712 276.5 z" stroke-linecap="round" />
</g>
		<g transform="matrix(1 0 0 1 85 38)"  >
<path style="stroke: rgb(29,29,27); stroke-width: 1; stroke-dasharray: none; stroke-linecap: butt; stroke-dashoffset: 0; stroke-linejoin: miter; stroke-miterlimit: 10; fill: rgb(29,29,27); fill-rule: nonzero; opacity: 1;"  transform=" translate(-768, -422)" d="M 768 422" stroke-linecap="round" />
</g>
</g>
</g>
</svg>